<?xml version="1.0" encoding="utf-8"?>
<svg xmlns="http://www.w3.org/2000/svg" xmlns:xlink="http://www.w3.org/1999/xlink" style="margin: auto; background: none; display: block; shape-rendering: auto; animation-play-state: running; animation-delay: 0s;" width="200px" height="200px" viewBox="0 0 100 100" preserveAspectRatio="xMidYMid">
<g transform="translate(50 50)" style="animation-play-state: running; animation-delay: 0s;">
  <g transform="scale(0.7)" style="animation-play-state: running; animation-delay: 0s;">
    <g transform="translate(-50 -50)" style="animation-play-state: running; animation-delay: 0s;">
      <g style="animation-play-state: running; animation-delay: 0s;" transform="rotate(127.546 50 50)">
        <animateTransform attributeName="transform" type="rotate" repeatCount="indefinite" values="0 50 50;360 50 50" keyTimes="0;1" dur="0.7575757575757576s" style="animation-play-state: running; animation-delay: 0s;"></animateTransform>
        <path fill-opacity="0.8" fill="#ffffff" d="M50 50L50 0A50 50 0 0 1 100 50Z" style="animation-play-state: running; animation-delay: 0s;"></path>
      </g>
      <g style="animation-play-state: running; animation-delay: 0s;" transform="rotate(185.66 50 50)">
        <animateTransform attributeName="transform" type="rotate" repeatCount="indefinite" values="0 50 50;360 50 50" keyTimes="0;1" dur="1.0101010101010102s" style="animation-play-state: running; animation-delay: 0s;"></animateTransform>
        <path fill-opacity="0.8" fill="rgba(255, 255, 255, 0.8)" d="M50 50L50 0A50 50 0 0 1 100 50Z" transform="rotate(90 50 50)" style="animation-play-state: running; animation-delay: 0s;"></path>
      </g>
      <g style="animation-play-state: running; animation-delay: 0s;" transform="rotate(243.773 50 50)">
        <animateTransform attributeName="transform" type="rotate" repeatCount="indefinite" values="0 50 50;360 50 50" keyTimes="0;1" dur="1.5151515151515151s" style="animation-play-state: running; animation-delay: 0s;"></animateTransform>
        <path fill-opacity="0.8" fill="rgba(255, 255, 255, 0.6)" d="M50 50L50 0A50 50 0 0 1 100 50Z" transform="rotate(180 50 50)" style="animation-play-state: running; animation-delay: 0s;"></path>
      </g>
      <g style="animation-play-state: running; animation-delay: 0s;" transform="rotate(301.887 50 50)">
        <animateTransform attributeName="transform" type="rotate" repeatCount="indefinite" values="0 50 50;360 50 50" keyTimes="0;1" dur="3.0303030303030303s" style="animation-play-state: running; animation-delay: 0s;"></animateTransform>
        <path fill-opacity="0.8" fill="rgba(255, 255, 255, 0.4)" d="M50 50L50 0A50 50 0 0 1 100 50Z" transform="rotate(270 50 50)" style="animation-play-state: running; animation-delay: 0s;"></path>
      </g>
    </g>
  </g>
</g>
<!-- [ldio] generated by https://loading.io/ --></svg>