<?xml version="1.0" encoding="UTF-8" ?>
<!DOCTYPE svg PUBLIC "-//W3C//DTD SVG 1.1//EN" "http://www.w3.org/Graphics/SVG/1.1/DTD/svg11.dtd">
<svg width="570pt" height="857pt" viewBox="0 0 570 857" version="1.1" xmlns="http://www.w3.org/2000/svg">
<g id="#fff">
<path fill="#fff" opacity="1.00" d=" M 304.32 124.32 C 345.62 83.14 386.68 41.71 428.13 0.69 C 428.92 1.29 429.69 1.92 430.45 2.57 C 469.73 41.94 509.10 81.23 548.42 120.57 C 555.30 127.75 562.78 134.38 569.31 141.87 C 536.29 175.31 502.86 208.38 469.68 241.68 C 414.85 296.51 360.02 351.35 305.18 406.18 C 297.75 413.85 289.82 421.08 282.67 429.01 C 287.57 434.84 293.38 439.85 298.63 445.36 C 388.46 535.19 478.29 625.03 568.13 714.85 C 569.35 715.91 567.51 717.06 566.91 717.88 C 520.52 764.20 474.08 810.50 427.86 857.00 L 427.29 857.00 C 418.43 847.13 408.61 838.15 399.37 828.64 C 276.70 705.97 154.03 583.31 31.36 460.64 C 20.85 450.36 10.80 439.60 0.00 429.63 L 0.00 428.35 C 20.51 408.42 40.49 387.94 60.80 367.80 C 141.97 286.64 223.16 205.50 304.32 124.32 Z" />
</g>
</svg>
