<?xml version="1.0" encoding="UTF-8" ?>
<!DOCTYPE svg PUBLIC "-//W3C//DTD SVG 1.1//EN" "http://www.w3.org/Graphics/SVG/1.1/DTD/svg11.dtd">
<svg width="85pt" height="55pt" viewBox="0 0 85 55" version="1.1" xmlns="http://www.w3.org/2000/svg">
<g id="#ffffffff">
<path fill="#ffffff" opacity="1.00" d=" M 4.82 11.76 C 8.14 8.59 11.16 4.98 14.86 2.28 C 21.40 8.34 27.62 14.76 34.07 20.92 C 37.05 23.67 39.59 26.95 42.95 29.26 C 51.83 21.05 60.13 12.21 68.75 3.71 C 69.42 3.18 70.38 1.65 71.26 2.79 C 74.31 5.70 77.29 8.70 80.22 11.73 C 81.36 12.60 79.81 13.58 79.30 14.26 C 71.44 22.07 63.56 29.88 55.78 37.77 C 52.05 42.65 47.75 47.12 42.98 50.98 C 38.05 47.35 34.09 42.52 30.02 37.97 C 21.84 30.14 13.93 22.03 5.73 14.22 C 5.20 13.56 3.68 12.63 4.82 11.76 Z" />
</g>
</svg>
