<?xml version="1.0" encoding="UTF-8" ?>
<!DOCTYPE svg PUBLIC "-//W3C//DTD SVG 1.1//EN" "http://www.w3.org/Graphics/SVG/1.1/DTD/svg11.dtd">
<svg width="59pt" height="89pt" viewBox="0 0 59 89" version="1.1" xmlns="http://www.w3.org/2000/svg">
<g id="#ffffffff">
<path fill="#ffffff" opacity="1.00" d=" M 15.06 0.00 L 44.08 0.00 C 38.27 11.26 32.72 22.65 27.02 33.97 C 37.68 34.04 48.34 33.97 59.00 34.02 L 59.00 34.44 C 56.66 36.63 54.53 39.03 52.47 41.48 C 41.29 54.31 30.08 67.12 18.90 79.95 C 16.33 82.89 13.63 85.75 11.43 89.00 L 11.10 89.00 C 14.21 76.29 17.76 63.69 20.97 51.00 C 13.98 51.02 6.99 50.94 0.00 51.05 L 0.00 50.36 C 5.39 33.69 9.88 16.74 15.06 0.00 Z" />
</g>
</svg>
