<?xml version="1.0" encoding="UTF-8" ?>
<!DOCTYPE svg PUBLIC "-//W3C//DTD SVG 1.1//EN" "http://www.w3.org/Graphics/SVG/1.1/DTD/svg11.dtd">
<svg width="1024pt" height="1024pt" viewBox="0 0 1024 1024" version="1.1" xmlns="http://www.w3.org/2000/svg">
<g id="#515a66ff">
<path fill="#515a66" opacity="1.00" d=" M 409.69 0.00 L 614.32 0.00 C 614.42 136.55 614.39 273.11 614.34 409.66 C 750.89 409.63 887.45 409.56 1024.00 409.70 L 1024.00 614.32 C 887.45 614.42 750.89 614.38 614.34 614.34 C 614.38 750.89 614.45 887.45 614.31 1024.00 L 409.68 1024.00 C 409.58 887.45 409.61 750.89 409.66 614.34 C 273.11 614.37 136.55 614.44 0.00 614.31 L 0.00 409.68 C 136.55 409.58 273.11 409.62 409.66 409.66 C 409.62 273.11 409.55 136.55 409.69 0.00 Z" />
</g>
</svg>
