<?xml version="1.0" encoding="UTF-8" ?>
<!DOCTYPE svg PUBLIC "-//W3C//DTD SVG 1.1//EN" "http://www.w3.org/Graphics/SVG/1.1/DTD/svg11.dtd">
<svg width="91pt" height="108pt" viewBox="0 0 91 108" version="1.1" xmlns="http://www.w3.org/2000/svg">
<g id="#fff">
<path fill="#fff" opacity="1.00" d=" M 30.81 0.00 L 58.92 0.00 C 59.79 0.76 61.08 1.52 60.93 2.88 C 61.07 6.25 61.17 9.64 60.82 13.00 C 59.75 15.80 56.30 14.82 54.00 15.05 C 54.00 15.73 54.00 17.08 54.00 17.76 C 68.13 20.47 80.68 30.14 86.71 43.21 C 89.20 48.32 90.37 53.93 91.00 59.55 L 91.00 65.36 C 90.09 77.50 84.39 89.21 75.06 97.07 C 67.28 103.83 57.11 107.65 46.83 108.00 L 42.74 108.00 C 31.06 107.13 19.69 101.89 11.87 93.09 C 4.86 85.60 0.87 75.61 0.00 65.44 L 0.00 59.71 C 0.65 52.13 2.92 44.64 7.03 38.21 C 13.67 27.64 24.75 20.14 36.99 17.76 C 37.00 17.08 37.00 15.71 37.01 15.02 C 34.31 14.82 29.29 16.10 29.07 12.07 C 29.43 8.11 27.54 3.05 30.81 0.00 M 34.00 5.00 C 34.00 6.67 34.00 8.33 34.00 10.00 C 41.33 10.00 48.67 10.00 56.00 10.00 C 56.00 8.33 56.00 6.67 56.00 5.00 C 48.67 5.00 41.33 5.00 34.00 5.00 M 39.94 15.00 C 39.94 15.51 39.94 16.53 39.94 17.04 C 43.65 16.99 47.35 16.99 51.06 17.04 C 51.06 16.53 51.06 15.51 51.06 15.00 C 47.35 15.00 43.65 15.00 39.94 15.00 M 37.56 22.82 C 22.95 25.56 10.55 37.11 6.57 51.39 C 3.30 62.66 5.25 75.33 11.91 85.02 C 18.35 94.81 29.30 101.46 40.95 102.71 C 54.64 104.40 68.94 98.38 77.34 87.45 C 83.89 79.23 86.96 68.36 85.72 57.92 C 84.51 46.50 78.05 35.83 68.63 29.30 C 59.74 23.01 48.22 20.64 37.56 22.82 Z" />
<path fill="#fff" opacity="1.00" d=" M 44.00 32.97 C 59.40 31.86 73.90 44.58 74.99 59.94 C 76.94 57.94 78.93 55.98 80.90 54.00 C 81.42 54.53 82.47 55.58 83.00 56.10 C 80.26 59.10 76.92 61.59 74.64 64.98 C 74.08 64.98 72.97 64.98 72.41 64.98 C 71.32 63.61 70.19 62.27 68.96 61.01 C 67.31 59.38 65.63 57.76 64.00 56.10 C 64.53 55.58 65.58 54.53 66.11 54.01 C 68.08 55.98 70.04 57.96 72.03 59.91 C 70.68 47.62 60.39 37.20 48.02 36.02 C 47.98 43.55 48.00 51.07 48.01 58.60 C 48.65 59.41 49.30 60.22 49.96 61.02 C 49.88 62.30 49.79 63.58 49.71 64.87 C 47.83 66.92 44.36 67.97 42.26 65.62 C 39.85 63.29 41.21 59.42 43.97 58.07 C 44.03 49.70 43.98 41.33 44.00 32.97 Z" />
</g>
<g id="#fff">
<path fill="#fff" opacity="0.30" d=" M 48.02 36.02 C 60.39 37.20 70.68 47.62 72.03 59.91 C 70.04 57.96 68.08 55.98 66.11 54.01 C 65.58 54.53 64.53 55.58 64.00 56.10 C 65.63 57.76 67.31 59.38 68.96 61.01 C 62.63 60.99 56.30 60.99 49.96 61.02 C 49.30 60.22 48.65 59.41 48.01 58.60 C 48.00 51.07 47.98 43.55 48.02 36.02 Z" />
</g>
<g id="#fff">
<path fill="#fff" opacity="0.51" d=" M 49.96 61.02 C 56.30 60.99 62.63 60.99 68.96 61.01 C 70.19 62.27 71.32 63.61 72.41 64.98 C 64.84 64.95 57.27 65.15 49.71 64.87 C 49.79 63.58 49.88 62.30 49.96 61.02 Z" />
</g>
</svg>
