<?xml version="1.0" encoding="UTF-8" ?>
<!DOCTYPE svg PUBLIC "-//W3C//DTD SVG 1.1//EN" "http://www.w3.org/Graphics/SVG/1.1/DTD/svg11.dtd">
<svg width="128pt" height="128pt" viewBox="0 0 128 128" version="1.1" xmlns="http://www.w3.org/2000/svg">
<g id="#ffffffff">
<path fill="#ffffff" opacity="1.00" d=" M 8.09 24.99 C 13.66 19.30 19.29 13.66 24.99 8.09 C 38.08 21.02 51.02 34.10 64.06 47.08 C 77.14 34.13 90.07 21.03 103.15 8.07 C 108.81 13.60 114.40 19.19 119.93 24.85 C 106.98 37.93 93.87 50.86 80.92 63.95 C 94.23 77.32 107.64 90.59 120.91 104.01 C 115.34 109.71 109.71 115.34 104.01 120.91 C 90.59 107.65 77.32 94.23 63.95 80.92 C 50.86 93.87 37.93 106.98 24.85 119.93 C 19.19 114.40 13.60 108.81 8.07 103.15 C 21.02 90.07 34.13 77.14 47.08 64.05 C 34.10 51.02 21.02 38.08 8.09 24.99 Z" />
</g>
</svg>
