<?xml version="1.0" encoding="UTF-8" ?>
<!DOCTYPE svg PUBLIC "-//W3C//DTD SVG 1.1//EN" "http://www.w3.org/Graphics/SVG/1.1/DTD/svg11.dtd">
<svg width="1024pt" height="1024pt" viewBox="0 0 1024 1024" version="1.1" xmlns="http://www.w3.org/2000/svg">
<g id="#fff">
<path fill="#fff" opacity="1.00" d=" M 330.62 0.00 L 352.38 0.00 C 368.02 1.00 383.70 2.04 399.14 4.85 C 448.88 13.28 496.66 33.00 537.87 62.10 C 587.47 96.93 627.53 145.18 652.56 200.39 C 685.32 272.03 691.86 355.16 671.10 431.12 C 663.25 460.53 651.04 488.67 635.82 515.01 C 742.39 621.82 849.19 728.41 955.85 835.14 C 968.58 847.76 981.05 860.62 994.01 873.00 C 1005.67 884.48 1014.20 899.23 1017.79 915.22 C 1021.29 930.24 1020.62 946.20 1015.85 960.87 C 1009.70 980.03 996.46 996.78 979.33 1007.31 C 964.93 1016.24 947.83 1020.63 930.92 1019.92 C 913.27 1019.23 895.92 1012.87 882.01 1001.99 C 875.35 997.04 869.97 990.69 864.15 984.85 C 747.74 868.53 631.49 752.05 515.01 635.82 C 485.34 653.01 453.30 666.24 419.85 673.94 C 345.79 691.46 265.89 683.43 197.00 650.99 C 139.73 624.29 90.20 581.29 55.65 528.38 C 25.75 482.89 7.08 430.10 1.73 375.93 C 1.06 368.08 0.50 360.23 0.00 352.38 L 0.00 330.63 C 0.41 323.69 0.96 316.76 1.49 309.84 C 5.16 269.10 16.32 229.04 34.27 192.28 C 59.72 139.80 98.95 94.12 146.87 60.88 C 187.92 32.28 235.37 12.93 284.73 4.71 C 299.89 1.98 315.27 0.99 330.62 0.00 M 328.47 166.60 C 302.49 168.60 276.92 176.33 254.35 189.38 C 225.55 205.91 201.60 230.76 186.18 260.18 C 172.03 287.06 165.04 317.68 166.28 348.05 C 167.38 381.33 178.46 414.17 197.51 441.46 C 217.87 470.79 247.35 493.73 280.89 506.05 C 316.62 519.31 356.72 520.40 393.11 509.10 C 425.29 499.25 454.37 479.75 475.94 453.96 C 496.64 429.30 510.47 398.85 514.97 366.95 C 520.24 331.59 514.35 294.63 498.14 262.75 C 478.55 223.67 443.84 192.44 402.84 177.22 C 379.20 168.31 353.65 164.83 328.47 166.60 Z" />
</g>
</svg>
