<?xml version="1.0" encoding="UTF-8" ?>
<!DOCTYPE svg PUBLIC "-//W3C//DTD SVG 1.1//EN" "http://www.w3.org/Graphics/SVG/1.1/DTD/svg11.dtd">
<svg width="120pt" height="144pt" viewBox="0 0 120 144" version="1.1" xmlns="http://www.w3.org/2000/svg">
<g id="#ffffffff">
<path fill="#ffffff" opacity="1.00" d=" M 41.29 0.00 L 78.69 0.00 C 80.80 1.63 83.22 3.42 83.79 6.21 C 84.81 10.26 82.08 15.01 77.85 15.68 C 74.57 16.16 71.25 16.01 67.95 16.09 C 67.97 18.58 68.04 21.06 68.18 23.54 C 86.55 25.98 103.40 37.43 112.36 53.65 C 116.81 61.23 118.96 69.90 120.00 78.56 L 120.00 88.43 C 118.66 102.62 112.66 116.41 102.44 126.44 C 92.39 136.62 78.61 142.68 64.42 144.00 L 54.60 144.00 C 40.09 142.23 26.03 135.79 16.10 124.93 C 6.75 115.04 1.24 101.91 0.00 88.42 L 0.00 78.57 C 1.08 69.17 3.64 59.82 8.74 51.77 C 18.09 36.26 34.80 25.44 52.83 23.45 C 52.96 20.99 53.03 18.53 53.04 16.07 C 49.42 15.98 45.76 16.21 42.16 15.69 C 37.94 14.98 35.17 10.27 36.21 6.20 C 36.78 3.43 39.19 1.65 41.29 0.00 M 34.54 57.54 C 23.73 67.99 21.09 85.30 27.17 98.86 C 31.41 108.17 39.72 115.60 49.56 118.48 C 58.80 121.25 69.32 120.34 77.61 115.25 C 67.17 103.72 55.42 93.47 44.89 82.03 C 54.75 71.09 66.33 61.88 76.18 50.92 C 62.83 43.71 45.05 46.67 34.54 57.54 M 74.74 84.10 C 77.17 87.36 80.26 90.02 83.08 92.93 C 85.93 95.72 88.44 98.90 91.72 101.24 C 97.19 90.73 97.66 77.38 92.08 66.82 C 86.10 72.37 80.37 78.19 74.74 84.10 Z" />
</g>
</svg>
